<svg width="135" height="123" viewBox="0 0 135 123" fill="none" xmlns="http://www.w3.org/2000/svg">
    <path
        d="M72.0409 119.95C104.841 119.95 131.441 93.5499 131.441 60.95C131.441 28.35 104.841 1.94995 72.0409 1.94995C39.2409 1.94995 12.6409 28.35 12.6409 60.95C12.6409 93.5499 39.2409 119.95 72.0409 119.95Z"
        fill="#F1F3F9" stroke="#D6DCE8" stroke-width="2" stroke-miterlimit="10" />
    <path
        d="M117.541 53.2499V89.3499C117.541 96.8499 111.441 102.95 103.841 102.95H40.4408C32.9408 102.95 26.8408 96.9499 26.7408 89.4499C26.7408 89.3499 26.7408 89.3499 26.7408 89.2499V53.2499C26.7408 53.1499 26.7408 53.1499 26.7408 53.0499C26.7408 52.8499 26.7408 52.6499 26.8408 52.4499C26.9408 52.1499 27.0408 51.9499 27.1408 51.6499L44.1408 19.1499C44.7408 17.8499 46.0408 17.1499 47.4408 17.1499H96.7408C98.1408 17.1499 99.3408 17.8499 100.041 19.1499L117.041 51.6499C117.141 51.8499 117.241 52.1499 117.341 52.4499C117.541 52.6499 117.541 52.9499 117.541 53.2499Z"
        fill="#F1F3F9" stroke="#D6DCE8" stroke-width="2" stroke-miterlimit="10" />
    <path
        d="M85.1409 53.5499H59.4409C58.3409 53.5499 57.4409 52.7499 57.4409 51.5499V16.45C57.4409 15.35 58.2409 14.45 59.4409 14.45H85.0409C86.1409 14.45 87.0409 15.25 87.0409 16.45V51.5499C87.0409 52.6499 86.2409 53.5499 85.1409 53.5499Z"
        fill="white" stroke="#D6DCE8" stroke-width="2" stroke-miterlimit="10" />
    <path
        d="M93.6409 61.85H50.9409C49.5409 61.85 48.4409 60.65 48.4409 59.35V25.25C48.4409 23.85 49.6409 22.75 50.9409 22.75H93.6409C95.0409 22.75 96.1409 23.95 96.1409 25.25V59.35C96.0409 60.75 95.0409 61.85 93.6409 61.85Z"
        fill="white" stroke="#D6DCE8" stroke-width="2" stroke-miterlimit="10" />
    <path
        d="M98.5409 71.5499H46.1409C44.6409 71.5499 43.3409 70.2499 43.3409 68.8499V35.2499C43.3409 33.7499 44.6409 32.5499 46.1409 32.5499H98.5409C100.041 32.5499 101.341 33.8499 101.341 35.2499V68.7499C101.241 70.3499 100.041 71.5499 98.5409 71.5499Z"
        fill="white" stroke="#D6DCE8" stroke-width="2" stroke-miterlimit="10" />
    <path
        d="M103.841 80.9499H40.8409C39.1409 80.9499 37.8409 79.5499 37.8409 78.0499V44.9499C37.8409 43.2499 39.2409 42.0499 40.8409 42.0499H103.841C105.541 42.0499 106.841 43.4499 106.841 44.9499V77.9499C106.741 79.6499 105.541 80.9499 103.841 80.9499Z"
        fill="white" stroke="#D6DCE8" stroke-width="2" stroke-miterlimit="10" />
    <path
        d="M84.9409 55.15H61.2409C60.6409 55.15 60.0409 54.65 60.0409 53.95C60.0409 53.35 60.5409 52.75 61.2409 52.75H84.9409C85.5409 52.75 86.1409 53.25 86.1409 53.95C86.1409 54.65 85.6409 55.15 84.9409 55.15Z"
        fill="#E6ECF5" />
    <path
        d="M78.0409 62.15H48.0409C47.6409 62.15 47.3409 61.85 47.3409 61.45C47.3409 61.05 47.6409 60.75 48.0409 60.75H77.9409C78.3409 60.75 78.6409 61.05 78.6409 61.45C78.8409 61.65 78.5409 62.15 78.0409 62.15Z"
        fill="#E6ECF5" />
    <path
        d="M97.7409 62.15H82.6409C82.2409 62.15 81.9409 61.85 81.9409 61.45C81.9409 61.05 82.2409 60.75 82.6409 60.75H97.6409C98.0409 60.75 98.3409 61.05 98.3409 61.45C98.5409 61.65 98.2409 62.15 97.7409 62.15Z"
        fill="#E6ECF5" />
    <g filter="url(#filter0_d_30_3630)">
        <path
            d="M112.323 55.0599V89.2859C112.323 94.1538 108.429 98.0481 103.472 98.0481H40.8092C35.9413 98.0481 31.9584 94.1538 31.9584 89.2859V54.8829C31.9584 54.7058 31.9584 54.5288 32.0469 54.3518H49.2267C52.2359 54.3518 54.7141 56.7415 54.7141 59.8393C54.7141 61.3439 55.3337 62.76 56.3072 63.7336C57.3693 64.7957 58.6084 65.3267 60.2016 65.3267H85.1686C88.1779 65.3267 90.6561 62.937 90.6561 59.8393C90.6561 58.3346 91.2756 56.9185 92.2492 55.9449C93.3113 54.8829 94.5504 54.3518 96.055 54.3518H112.146C112.323 54.5288 112.323 54.7943 112.323 55.0599Z"
            fill="white" />
    </g>
    <path
        d="M117.541 53.25V93.0499C117.541 98.5499 113.141 102.95 107.541 102.95H36.7408C31.2408 102.95 26.7408 98.5499 26.7408 93.0499V53.0499C26.7408 52.8499 26.7408 52.65 26.8408 52.45H49.6408C53.0408 52.45 55.8408 55.15 55.8408 58.65C55.8408 60.35 56.5408 61.9499 57.6408 63.0499C58.8408 64.2499 60.2408 64.85 62.0408 64.85H82.3408C85.7408 64.85 88.5408 62.15 88.5408 58.65C88.5408 56.95 89.2408 55.35 90.3408 54.25C91.5408 53.05 92.9408 52.45 94.6408 52.45H117.341C117.541 52.65 117.541 52.95 117.541 53.25Z"
        fill="white" stroke="#D6DCE8" stroke-width="2" stroke-miterlimit="10" />
    <path
        d="M107.541 88.5499H86.9409C86.2409 88.5499 85.6409 88.05 85.6409 87.25C85.6409 86.55 86.1409 85.95 86.9409 85.95H107.341C108.041 85.95 108.641 86.45 108.641 87.25C108.741 87.85 108.141 88.5499 107.541 88.5499Z"
        fill="#E6ECF5" />
    <path
        d="M98.3409 94.85H86.9409C86.2409 94.85 85.6409 94.35 85.6409 93.55C85.6409 92.85 86.1409 92.25 86.9409 92.25H98.2409C98.9409 92.25 99.5409 92.75 99.5409 93.55C99.6409 94.15 99.0409 94.85 98.3409 94.85Z"
        fill="#E6ECF5" />
    <path
        d="M82.7906 111.459C81.3057 112.378 79.6086 113.226 78.053 113.792C74.0932 115.065 69.9213 114.994 65.9615 113.721C61.931 112.378 58.1833 109.762 55.7084 105.872C49.7687 96.68 52.2436 84.5885 61.2946 78.6488C70.3455 72.7091 82.5078 75.1133 88.3768 84.235C90.4981 87.4877 91.488 91.1646 91.6295 94.983C91.7002 101.701 88.3061 107.782 82.7906 111.459Z"
        fill="#D6DCE8" stroke="#AAB2C5" stroke-width="2" stroke-miterlimit="10" />
    <path
        d="M78.4014 97.4527L75.9266 94.9778L78.4014 92.503C79.4009 91.5035 79.526 89.8091 78.4014 88.6846C77.402 87.6851 75.7076 87.56 74.5831 88.6846L72.1082 91.1595L69.6333 88.6846C68.6339 87.6851 66.9395 87.56 65.8149 88.6846C65.292 89.2075 64.9917 89.8797 64.9917 90.5938C64.9917 91.3079 65.292 91.98 65.8149 92.503L68.2898 94.9778L65.8149 97.4527C64.8155 98.4521 64.6904 100.147 65.8149 101.271C66.8144 102.271 68.5088 102.396 69.6333 101.271L72.1082 98.7962L74.5831 101.271C75.5825 102.271 77.2769 102.396 78.4014 101.271C79.526 100.147 79.4009 98.4521 78.4014 97.4527Z"
        fill="white" stroke="#AAB2C5" stroke-width="2" />
    <path
        d="M129.923 32.7499C132.188 32.7499 134.023 30.9143 134.023 28.6499C134.023 26.3856 132.188 24.5499 129.923 24.5499C127.659 24.5499 125.823 26.3856 125.823 28.6499C125.823 30.9143 127.659 32.7499 129.923 32.7499Z"
        fill="#F1F3F9" />
    <path
        d="M125.823 19.45C127.37 19.45 128.623 18.1964 128.623 16.65C128.623 15.1036 127.37 13.85 125.823 13.85C124.277 13.85 123.023 15.1036 123.023 16.65C123.023 18.1964 124.277 19.45 125.823 19.45Z"
        fill="#F1F3F9" />
    <path
        d="M12.4232 28.6499C13.9696 28.6499 15.2232 27.3963 15.2232 25.8499C15.2232 24.3035 13.9696 23.0499 12.4232 23.0499C10.8768 23.0499 9.62323 24.3035 9.62323 25.8499C9.62323 27.3963 10.8768 28.6499 12.4232 28.6499Z"
        fill="#F1F3F9" />
    <path
        d="M6.12322 90.25C8.9951 90.25 11.3232 87.9219 11.3232 85.05C11.3232 82.1781 8.9951 79.85 6.12322 79.85C3.25134 79.85 0.923218 82.1781 0.923218 85.05C0.923218 87.9219 3.25134 90.25 6.12322 90.25Z"
        fill="#F1F3F9" />
    <defs>
        <filter id="filter0_d_30_3630" x="18.9584" y="38.3518" width="106.365" height="69.6963"
            filterUnits="userSpaceOnUse" color-interpolation-filters="sRGB">
            <feFlood flood-opacity="0" result="BackgroundImageFix" />
            <feColorMatrix in="SourceAlpha" type="matrix" values="0 0 0 0 0 0 0 0 0 0 0 0 0 0 0 0 0 0 127 0"
                result="hardAlpha" />
            <feOffset dy="-3" />
            <feGaussianBlur stdDeviation="6.5" />
            <feColorMatrix type="matrix" values="0 0 0 0 0.397708 0 0 0 0 0.47749 0 0 0 0 0.575 0 0 0 0.27 0" />
            <feBlend mode="normal" in2="BackgroundImageFix" result="effect1_dropShadow_30_3630" />
            <feBlend mode="normal" in="SourceGraphic" in2="effect1_dropShadow_30_3630" result="shape" />
        </filter>
    </defs>
</svg>