<svg width="12" height="12" viewBox="0 0 12 12" fill="none" xmlns="http://www.w3.org/2000/svg">
    <path
        d="M6.75 2.75C7.3 2.75 7.75 2.3 7.75 1.75C7.75 1.2 7.3 0.75 6.75 0.75C6.2 0.75 5.75 1.2 5.75 1.75C5.75 2.3 6.2 2.75 6.75 2.75ZM4.9 4.45L3.5 11.5H4.55L5.45 7.5L6.5 8.5V11.5H7.5V7.75L6.45 6.75L6.75 5.25C7.4 6 8.4 6.5 9.5 6.5V5.5C8.55 5.5 7.75 5 7.35 4.3L6.85 3.5C6.71497 3.28408 6.50751 3.12325 6.26475 3.0463C6.02198 2.96935 5.75976 2.9813 5.525 3.08L3 4.15V6.5H4V4.8L4.9 4.45Z"
        fill="#1F1F1F" />
</svg>