<svg width="350" height="167" viewBox="0 0 350 167" fill="none" xmlns="http://www.w3.org/2000/svg">
    <rect width="350" height="167" fill="#2374E1" fill-opacity="0.05" />
    <g clip-path="url(#clip0_3493_1146)">
        <path
            d="M202.688 61.4336H156.031C155.306 61.4336 154.72 62.0202 154.72 62.7443V69.154H148.311C147.587 69.154 147 69.7407 147 70.4647V104.256C147 104.981 147.587 105.567 148.311 105.567H194.969C195.693 105.567 196.28 104.981 196.28 104.256V97.8456H202.69C203.413 97.8456 204.001 97.259 204.001 96.5349V62.7431C204 62.0191 203.413 61.4336 202.688 61.4336ZM190.589 65.1918C193.355 65.1918 195.597 67.4335 195.597 70.1992C195.597 72.965 193.355 75.2061 190.589 75.2061C187.824 75.2061 185.582 72.9644 185.582 70.1992C185.583 67.4335 187.824 65.1918 190.589 65.1918ZM192.001 101.422L151.278 101.41C151.442 97.7992 152.708 92.0185 154.72 87.2516V96.5355C154.72 97.2595 155.307 97.8462 156.031 97.8462H190.4C190.983 99.1522 191.854 100.896 192.001 101.422ZM158.998 93.6903C159.255 88.0284 162.215 77.0275 166.525 72.9742C170.386 69.372 173.666 72.5238 176.24 76.1916C178.62 79.6013 180.693 82.6169 182.438 84.5125C185.311 87.3861 187.766 83.0303 190.78 81.5955C195.171 79.5045 198.789 90.3774 199.722 93.7031L158.998 93.6903Z"
            fill="#2374E1" fill-opacity="0.2" />
    </g>
    <defs>
        <clipPath id="clip0_3493_1146">
            <rect width="57" height="57" fill="white" transform="translate(147 55)" />
        </clipPath>
    </defs>
</svg>