<svg width="16" height="20" viewBox="0 0 16 20" fill="none" xmlns="http://www.w3.org/2000/svg">
    <path
        d="M0.502192 7.52659L0.940545 7.83814L1.20122 7.27402C1.78888 6.12125 3.58734 3.43146 7.56727 3.43146C11.6458 3.43146 13.3836 6.35263 13.9546 7.31389L14.244 7.84147L15.1526 7.17016L14.8498 6.61517C14.5348 6.08137 13.8738 4.97305 12.6942 3.99393C11.261 2.80087 9.53561 2.19562 7.56727 2.19562C3.02521 2.19562 0.94622 5.31577 0.261381 6.6509L0 7.17016L0.403243 7.45513C0.42158 7.47192 0.440897 7.48719 0.461052 7.50083C0.474372 7.51025 0.488104 7.51885 0.502192 7.52659Z"
        fill="#727272" />
    <path
        d="M11.8464 6.18788C10.5996 5.0133 9.10583 4.3913 7.52367 4.3913C4.10255 4.3913 1.82965 7.07095 1.09224 9.72909C0.416927 12.1838 1.23783 15.7408 1.27221 15.8931L1.42586 16.4538L2.47584 16.1927L2.30956 15.5837C2.30219 15.5533 1.53426 12.2167 2.11977 10.0941C2.4355 8.95402 3.09257 7.8448 3.92118 7.05755C4.921 6.10952 6.16778 5.60648 7.52367 5.60648C10.7013 5.60648 12.5027 8.4733 13.0121 9.99583C13.4075 11.1704 13.3163 12.5058 12.7918 13.3251C12.5978 13.6251 12.2558 13.9776 11.7352 13.9471C10.5491 13.8773 10.3438 13.1988 10.0586 11.9069C9.92182 11.2849 9.78149 10.641 9.43173 10.1205C9.00585 9.48101 8.38631 9.17204 7.52753 9.17204C6.60384 9.17204 5.90432 9.52446 5.44441 10.2163C4.44109 11.7299 5.0936 14.3141 5.12131 14.4229L5.12903 14.4575C5.17849 14.6142 6.39476 18.3815 9.65204 19.3166L10.1702 19.4469L10.454 18.2812L9.91831 18.142C7.31459 17.3937 6.22742 14.3097 6.14393 14.0661C6.04982 13.6708 5.98989 13.2656 5.96501 12.8566C5.92713 12.2695 5.95379 11.4603 6.29583 10.9426C6.54666 10.5642 6.94974 10.3815 7.52367 10.3815C8.56874 10.3815 8.74379 10.9731 9.01742 12.2001C9.28334 13.3962 9.64889 15.036 11.678 15.1538C12.4571 15.1972 13.1605 14.7969 13.6545 14.0311C14.3957 12.883 14.5364 11.1253 14.0119 9.55937C13.6022 8.32673 12.8118 7.1014 11.8464 6.18788Z"
        fill="#727272" />
    <path
        d="M3.91362 13.2663C3.7888 12.1197 3.96435 10.3877 4.86871 9.26141C5.49609 8.47932 6.40801 8.08564 7.57354 8.08564C8.92218 8.08564 9.9431 8.76353 10.6136 10.097C10.9437 10.7661 11.1617 11.498 11.2568 12.256L11.3083 12.8516L12.3875 12.7624C12.3885 12.5509 12.3765 12.3395 12.3515 12.1299C12.3476 12.078 12.2231 10.8138 11.5961 9.54522C10.7306 7.79738 9.34307 6.87217 7.57642 6.87217C6.08353 6.87217 4.89461 7.40653 4.04888 8.45783C2.90314 9.88254 2.66931 11.9547 2.82903 13.4184V13.4317C3.11574 15.6426 3.87117 17.4107 5.20758 18.9919L5.62487 19.4468L6.37851 18.5634L6.00655 18.1664C4.8295 16.7766 4.16292 15.2213 3.91362 13.2663ZM3.13264 2.29721C3.53123 2.02476 4.94102 1.21185 7.57642 1.21185C10.7255 1.21185 12.1249 2.37627 12.1403 2.38478L12.6404 2.744L13.2242 1.72189L12.7487 1.37484C12.7299 1.35943 12.7105 1.34403 12.6911 1.32943C12.235 0.994944 10.6176 0 7.57642 0C4.42121 0 2.80097 1.0736 2.4175 1.36673L1.92862 1.72392L2.51139 2.74603L3.13264 2.29721Z"
        fill="#727272" />
    <path
        d="M12.2388 16.0098C11.0583 16.1603 10.1002 15.9026 9.38344 15.2532C8.17208 14.1522 8.015 12.2384 8.0111 12.2027L7.96759 11.6054L6.88748 11.6949L6.93383 12.297C6.94161 12.3957 7.1178 14.7354 8.68931 16.1719C9.47153 16.89 10.449 17.2513 11.5988 17.2513C11.8538 17.2507 12.1084 17.2334 12.3616 17.1995L12.9485 17.1156L12.7327 15.9231L12.2388 16.0098Z"
        fill="#727272" />
</svg>