<svg width="32" height="32" viewBox="0 0 32 32" fill="none" xmlns="http://www.w3.org/2000/svg">
    <rect width="32" height="32" rx="6" fill="#ED8484" />
    <path fill-rule="evenodd" clip-rule="evenodd"
        d="M14.0001 10C14.5524 10 15.0001 10.4477 15.0001 11V16H19.0001C19.5524 16 20.0001 16.4477 20.0001 17C20.0001 17.5523 19.5524 18 19.0001 18H14.0001C13.4478 18 13.0001 17.5523 13.0001 17V11C13.0001 10.4477 13.4478 10 14.0001 10Z"
        fill="white" />
    <path fill-rule="evenodd" clip-rule="evenodd"
        d="M20.0494 4.93495C18.6541 4.33332 17.116 4 15.5 4C9.14873 4 4 9.14873 4 15.5C4 21.8513 9.14873 27 15.5 27C21.8513 27 27 21.8513 27 15.5C27 14.3903 26.8428 13.3173 26.5495 12.3021C25.9812 12.6396 25.3404 12.8677 24.6559 12.9574C24.8802 13.7666 25 14.6193 25 15.5C25 20.7467 20.7467 25 15.5 25C10.2533 25 6 20.7467 6 15.5C6 10.2533 10.2533 6 15.5 6C16.7981 6 18.0353 6.26034 19.1624 6.73166C19.3356 6.06918 19.6413 5.46028 20.0494 4.93495Z"
        fill="white" />
    <path fill-rule="evenodd" clip-rule="evenodd"
        d="M24.0001 12C26.2093 12 28.0001 10.2091 28.0001 8C28.0001 5.79086 26.2093 4 24.0001 4C21.791 4 20.0001 5.79086 20.0001 8C20.0001 10.2091 21.791 12 24.0001 12ZM23.573 7.10986L23.8324 8.74929H24.1868L24.4336 7.10986V6H23.573V7.10986ZM23.6109 9.88732C23.6911 9.96244 23.8219 10 24.0033 10C24.1805 10 24.3092 9.96244 24.3893 9.88732C24.4695 9.81221 24.5096 9.71643 24.5096 9.6V9.48732C24.5096 9.37089 24.4695 9.27512 24.3893 9.2C24.3092 9.12488 24.1805 9.08732 24.0033 9.08732C23.8219 9.08732 23.6911 9.12488 23.6109 9.2C23.5308 9.27512 23.4907 9.37089 23.4907 9.48732V9.6C23.4907 9.71643 23.5308 9.81221 23.6109 9.88732Z"
        fill="white" />
</svg>