<svg width="25" height="24" viewBox="0 0 25 24" fill="none" xmlns="http://www.w3.org/2000/svg">
    <path fill-rule="evenodd" clip-rule="evenodd"
        d="M3.48862 7C3.48862 4.791 5.27952 3 7.48862 3H17.4886C19.6976 3 21.4886 4.791 21.4886 7V17C21.4886 19.209 19.6976 21 17.4886 21H7.48862C5.27952 21 3.48862 19.209 3.48862 17V7ZM17.4886 5H7.48862C6.38402 5 5.48862 5.895 5.48862 7V17C5.48862 18.105 6.38402 19 7.48862 19H17.4886C18.5936 19 19.4886 18.105 19.4886 17V7C19.4886 5.895 18.5936 5 17.4886 5ZM8.48862 6.99998C7.93633 6.99998 7.48862 7.4477 7.48862 7.99998C7.48862 8.55227 7.93633 8.99998 8.48862 8.99998H16.4886C17.0409 8.99998 17.4886 8.55227 17.4886 7.99998C17.4886 7.4477 17.0409 6.99998 16.4886 6.99998H8.48862Z"
        fill="#727272" />
    <path fill-rule="evenodd" clip-rule="evenodd"
        d="M9.48862 2.99923C9.48862 2.44737 9.0409 2 8.48862 2C7.93633 2 7.48862 2.44737 7.48862 2.99923V3.99847C7.48862 4.55033 7.93633 4.9977 8.48862 4.9977C9.0409 4.9977 9.48862 4.55033 9.48862 3.99847V2.99923ZM17.4886 2.99923C17.4886 2.44737 17.0409 2 16.4886 2C15.9363 2 15.4886 2.44737 15.4886 2.99923V3.99847C15.4886 4.55033 15.9363 4.9977 16.4886 4.9977C17.0409 4.9977 17.4886 4.55033 17.4886 3.99847V2.99923ZM9.78112 11.2739C9.97612 11.079 10.2441 10.9931 10.5001 10.9931C10.7561 10.9931 11.0231 11.079 11.2191 11.2739L12.5001 12.5539L13.7811 11.2739C13.9761 11.079 14.2441 10.9931 14.5001 10.9931C14.7561 10.9931 15.0231 11.079 15.2191 11.2739C15.6091 11.6646 15.6091 12.3201 15.2191 12.7108L13.9381 13.9908L15.2191 15.2708C15.6091 15.6615 15.6091 16.317 15.2191 16.7077C14.8281 17.0974 14.1721 17.0974 13.7811 16.7077L12.5001 15.4277L11.2191 16.7077C10.8281 17.0974 10.1721 17.0974 9.78112 16.7077C9.39112 16.317 9.39112 15.6615 9.78112 15.2708L11.0621 13.9908L9.78112 12.7108C9.39112 12.3201 9.39112 11.6646 9.78112 11.2739Z"
        fill="#727272" />
</svg>