<svg width="32" height="32" viewBox="0 0 32 32" fill="none" xmlns="http://www.w3.org/2000/svg">
    <rect width="32" height="32" rx="6" fill="#ED8484" />
    <path
        d="M8.50219 14.5266L8.94055 14.8381L9.20122 14.274C9.78888 13.1213 11.5873 10.4315 15.5673 10.4315C19.6458 10.4315 21.3836 13.3526 21.9546 14.3139L22.244 14.8415L23.1526 14.1702L22.8498 13.6152C22.5348 13.0814 21.8738 11.9731 20.6942 10.9939C19.261 9.80087 17.5356 9.19562 15.5673 9.19562C11.0252 9.19562 8.94622 12.3158 8.26138 13.6509L8 14.1702L8.40324 14.4551C8.42158 14.4719 8.4409 14.4872 8.46105 14.5008C8.47437 14.5103 8.4881 14.5188 8.50219 14.5266Z"
        fill="white" />
    <path
        d="M19.8464 13.1879C18.5996 12.0133 17.1058 11.3913 15.5237 11.3913C12.1026 11.3913 9.82965 14.071 9.09225 16.7291C8.41693 19.1838 9.23783 22.7408 9.27221 22.8931L9.42587 23.4538L10.4758 23.1927L10.3096 22.5837C10.3022 22.5533 9.53427 19.2167 10.1198 17.0941C10.4355 15.954 11.0926 14.8448 11.9212 14.0576C12.921 13.1095 14.1678 12.6065 15.5237 12.6065C18.7013 12.6065 20.5027 15.4733 21.0121 16.9958C21.4075 18.1704 21.3163 19.5058 20.7918 20.3251C20.5978 20.6251 20.2558 20.9776 19.7352 20.9471C18.5491 20.8773 18.3439 20.1988 18.0586 18.9069C17.9218 18.2849 17.7815 17.641 17.4317 17.1205C17.0059 16.481 16.3863 16.172 15.5275 16.172C14.6038 16.172 13.9043 16.5245 13.4444 17.2163C12.4411 18.7299 13.0936 21.3141 13.1213 21.4229L13.129 21.4575C13.1785 21.6142 14.3948 25.3815 17.6521 26.3166L18.1702 26.4469L18.454 25.2812L17.9183 25.142C15.3146 24.3937 14.2274 21.3097 14.1439 21.0661C14.0498 20.6708 13.9899 20.2656 13.965 19.8566C13.9271 19.2695 13.9538 18.4603 14.2958 17.9426C14.5467 17.5642 14.9497 17.3815 15.5237 17.3815C16.5687 17.3815 16.7438 17.9731 17.0174 19.2001C17.2833 20.3962 17.6489 22.036 19.678 22.1538C20.4571 22.1972 21.1605 21.7969 21.6545 21.0311C22.3957 19.883 22.5364 18.1253 22.0119 16.5594C21.6022 15.3267 20.8118 14.1014 19.8464 13.1879Z"
        fill="white" />
    <path
        d="M11.9136 20.2663C11.7888 19.1197 11.9643 17.3877 12.8687 16.2614C13.4961 15.4793 14.408 15.0856 15.5735 15.0856C16.9222 15.0856 17.9431 15.7635 18.6136 17.097C18.9437 17.7661 19.1617 18.498 19.2568 19.256L19.3083 19.8516L20.3875 19.7624C20.3885 19.5509 20.3765 19.3395 20.3515 19.1299C20.3475 19.078 20.2231 17.8138 19.5961 16.5452C18.7305 14.7974 17.3431 13.8722 15.5764 13.8722C14.0835 13.8722 12.8946 14.4065 12.0489 15.4578C10.9031 16.8825 10.6693 18.9547 10.829 20.4184V20.4317C11.1157 22.6426 11.8712 24.4107 13.2076 25.9919L13.6249 26.4468L14.3785 25.5634L14.0065 25.1664C12.8295 23.7766 12.1629 22.2213 11.9136 20.2663ZM11.1326 9.29721C11.5312 9.02476 12.941 8.21185 15.5764 8.21185C18.7255 8.21185 20.1249 9.37627 20.1403 9.38478L20.6404 9.744L21.2242 8.72189L20.7486 8.37484C20.7299 8.35943 20.7105 8.34403 20.6911 8.32943C20.2349 7.99494 18.6176 7 15.5764 7C12.4212 7 10.801 8.0736 10.4175 8.36673L9.92861 8.72392L10.5114 9.74603L11.1326 9.29721Z"
        fill="white" />
    <path
        d="M20.2388 23.0098C19.0583 23.1603 18.1002 22.9026 17.3834 22.2532C16.1721 21.1522 16.015 19.2384 16.0111 19.2027L15.9676 18.6054L14.8875 18.6949L14.9338 19.297C14.9416 19.3957 15.1178 21.7354 16.6893 23.1719C17.4715 23.89 18.449 24.2513 19.5988 24.2513C19.8538 24.2507 20.1084 24.2334 20.3616 24.1995L20.9485 24.1156L20.7327 22.9231L20.2388 23.0098Z"
        fill="white" />
    <path fill-rule="evenodd" clip-rule="evenodd"
        d="M10.2609 4H7.13043C5.40154 4 4 5.40154 4 7.13044V11.3043H6.08696V7.13044C6.08696 6.55414 6.55414 6.08696 7.13043 6.08696H10.2609V4ZM21.7391 6.08696V4H24.8696C26.5985 4 28 5.40154 28 7.13043V11.3043H25.913V7.13043C25.913 6.55414 25.4459 6.08696 24.8696 6.08696H21.7391ZM21.7391 25.913H24.8696C25.4459 25.913 25.913 25.4459 25.913 24.8696V22.7826H28V24.8696C28 26.5985 26.5985 28 24.8696 28H21.7391V25.913ZM6.08696 22.7826V24.8696C6.08696 25.4459 6.55414 25.913 7.13044 25.913H10.2609V28H7.13044C5.40154 28 4 26.5985 4 24.8696V22.7826H6.08696Z"
        fill="white" />
</svg>