<svg width="32" height="32" viewBox="0 0 32 32" fill="none" xmlns="http://www.w3.org/2000/svg">
    <rect width="32" height="32" rx="6" fill="#ED8484" />
    <path fill-rule="evenodd" clip-rule="evenodd"
        d="M20.0866 9.01705C20.2628 9.15173 20.2628 9.48843 20.0866 9.62311L16.9156 12.0473C16.7394 12.182 16.5192 12.0137 16.5192 11.7443V10.238L16.514 10.2382C16.4009 10.2411 16.2552 10.2449 16.056 10.2449C12.225 10.2449 9.11931 13.3506 9.11931 17.1816C9.11931 20.8572 11.9781 23.8651 15.5935 24.1031V25.9561C10.9559 25.7156 7.26953 21.8791 7.26953 17.1816C7.26953 12.329 11.2034 8.39515 16.056 8.39515C16.2236 8.39515 16.3772 8.39677 16.5192 8.40051V6.89584C16.5192 6.62648 16.7394 6.45813 16.9156 6.59281L20.0866 9.01705ZM18.0356 25.7429L17.707 24.3284L17.8371 23.8862C18.6436 23.6709 19.4073 23.3117 20.0878 22.8267L21.1614 24.3331C20.2223 25.0023 19.1588 25.482 18.0356 25.7429ZM23.5098 21.8354L21.9396 20.8575C22.1751 20.4794 22.3782 20.0717 22.5429 19.6362C22.7077 19.2007 22.8254 18.7607 22.8991 18.3214L24.7234 18.6277C24.6298 19.1853 24.4807 19.7419 24.273 20.2907C24.0654 20.8396 23.8087 21.3555 23.5098 21.8354ZM24.6163 15.201L22.8145 15.6196C22.6083 14.732 22.229 13.891 21.7001 13.1488L23.2065 12.0753C23.8757 13.0143 24.3554 14.0779 24.6163 15.201Z"
        fill="white" />
    <path fill-rule="evenodd" clip-rule="evenodd"
        d="M16.5186 13.0197C17.0294 13.0197 17.4435 13.4337 17.4435 13.9445V17.7234L19.0224 19.3023C19.3836 19.6635 19.3836 20.2491 19.0224 20.6103C18.6612 20.9715 18.0756 20.9715 17.7144 20.6103L15.8646 18.7605C15.6912 18.5871 15.5938 18.3518 15.5938 18.1065V13.9445C15.5938 13.4337 16.0078 13.0197 16.5186 13.0197Z"
        fill="white" />
</svg>