<svg width="32" height="32" viewBox="0 0 32 32" fill="none" xmlns="http://www.w3.org/2000/svg">
    <rect width="32" height="32" rx="6" fill="#ED8484" />
    <path fill-rule="evenodd" clip-rule="evenodd"
        d="M14.0008 10.0005C14.5531 10.0005 15.0008 10.4482 15.0008 11.0005V16.0009H19.0011C19.5534 16.0009 20.0012 16.4486 20.0012 17.001C20.0012 17.5533 19.5534 18.001 19.0011 18.001H14.0008C13.4484 18.001 13.0007 17.5533 13.0007 17.001V11.0005C13.0007 10.4482 13.4484 10.0005 14.0008 10.0005Z"
        fill="white" />
    <path fill-rule="evenodd" clip-rule="evenodd"
        d="M20.0505 4.93499C18.6551 4.33333 17.1169 4 15.5008 4C9.14909 4 4 9.14909 4 15.5008C4 21.8525 9.14909 27.0016 15.5008 27.0016C21.8525 27.0016 27.0016 21.8525 27.0016 15.5008C27.0016 14.391 26.8445 13.318 26.5511 12.3027C25.9828 12.6402 25.3419 12.8684 24.6574 12.9581C24.8817 13.7674 25.0015 14.6201 25.0015 15.5008C25.0015 20.7479 20.7479 25.0015 15.5008 25.0015C10.2537 25.0015 6.00014 20.7479 6.00014 15.5008C6.00014 10.2537 10.2537 6.00014 15.5008 6.00014C16.7989 6.00014 18.0362 6.26048 19.1634 6.7318C19.3366 6.06929 19.6423 5.46035 20.0505 4.93499Z"
        fill="white" />
    <path fill-rule="evenodd" clip-rule="evenodd"
        d="M28.0001 8.00029C28.0001 10.2096 26.2091 12.0006 23.9998 12.0006C21.7905 12.0006 19.9995 10.2096 19.9995 8.00029C19.9995 5.79099 21.7905 4 23.9998 4C26.2091 4 28.0001 5.79099 28.0001 8.00029ZM26.2074 7.41222C26.4774 7.19095 26.5169 6.79269 26.2956 6.5227C26.0743 6.2527 25.6761 6.2132 25.4061 6.43448L23.2894 8.1692L22.678 7.35395C22.4685 7.07468 22.0723 7.01809 21.7931 7.22754C21.5138 7.43699 21.4572 7.83318 21.6666 8.11244L22.674 9.45561C22.7774 9.59349 22.9327 9.68317 23.1038 9.70386C23.2749 9.72456 23.447 9.67448 23.5803 9.56523L26.2074 7.41222Z"
        fill="white" />
</svg>