<?xml version="1.0" standalone="no"?>
<!DOCTYPE svg PUBLIC "-//W3C//DTD SVG 20010904//EN"
 "http://www.w3.org/TR/2001/REC-SVG-20010904/DTD/svg10.dtd">
<svg version="1.0" xmlns="http://www.w3.org/2000/svg"
 width="256.000000pt" height="256.000000pt" viewBox="0 0 256.000000 256.000000"
 preserveAspectRatio="xMidYMid meet">

<g transform="translate(0.000000,256.000000) scale(0.100000,-0.100000)"
fill="#000000" stroke="none">
<path d="M0 2260 l0 -300 75 0 75 0 0 225 0 225 225 0 225 0 0 75 0 75 -300 0
-300 0 0 -300z"/>
<path d="M1960 2485 l0 -75 225 0 225 0 0 -225 0 -225 75 0 75 0 0 300 0 300
-300 0 -300 0 0 -75z"/>
<path d="M300 1885 l0 -375 380 0 380 0 0 225 0 225 70 0 70 0 0 -150 0 -150
80 0 80 0 0 150 0 150 -75 0 -75 0 0 75 0 75 75 0 75 0 0 75 0 75 -80 0 -80 0
0 -75 0 -75 -70 0 -70 0 0 75 0 75 -380 0 -380 0 0 -375z m600 0 l0 -225 -220
0 -220 0 0 225 0 225 220 0 220 0 0 -225z"/>
<path d="M600 1885 l0 -75 80 0 80 0 0 75 0 75 -80 0 -80 0 0 -75z"/>
<path d="M1500 1885 l0 -375 150 0 150 0 0 -75 0 -75 -220 0 -220 0 0 75 0 75
-80 0 -80 0 0 -150 0 -150 -70 0 -70 0 0 75 0 75 -380 0 -380 0 0 -75 0 -75
150 0 150 0 0 -75 0 -75 -75 0 -75 0 0 -75 0 -75 -75 0 -75 0 0 -150 0 -150
75 0 75 0 0 -75 0 -75 -75 0 -75 0 0 -75 0 -75 80 0 80 0 0 75 0 75 70 0 70 0
0 -75 0 -75 380 0 380 0 0 75 0 75 -75 0 -75 0 0 75 0 75 -80 0 -80 0 0 -75 0
-75 -145 0 -145 0 0 75 0 75 75 0 75 0 0 75 0 75 75 0 75 0 0 150 0 150 75 0
75 0 0 75 0 75 295 0 295 0 0 -75 0 -75 -225 0 -225 0 0 -75 0 -75 -75 0 -75
0 0 -75 0 -75 75 0 75 0 0 -75 0 -75 75 0 75 0 0 -150 0 -150 380 0 380 0 0
375 0 375 -150 0 -150 0 0 75 0 75 150 0 150 0 0 75 0 75 -150 0 -150 0 0 75
0 75 150 0 150 0 0 375 0 375 -380 0 -380 0 0 -375z m600 0 l0 -225 -220 0
-220 0 0 225 0 225 220 0 220 0 0 -225z m-150 -600 l0 -75 -70 0 -70 0 0 75 0
75 70 0 70 0 0 -75z m-900 -150 l0 -75 -75 0 -75 0 0 -150 0 -150 -70 0 -70 0
0 225 0 225 145 0 145 0 0 -75z m-450 -375 l0 -150 -70 0 -70 0 0 150 0 150
70 0 70 0 0 -150z m900 75 l0 -75 -70 0 -70 0 0 75 0 75 70 0 70 0 0 -75z
m600 -150 l0 -225 -220 0 -220 0 0 225 0 225 220 0 220 0 0 -225z"/>
<path d="M1800 1885 l0 -75 80 0 80 0 0 75 0 75 -80 0 -80 0 0 -75z"/>
<path d="M1800 685 l0 -75 80 0 80 0 0 75 0 75 -80 0 -80 0 0 -75z"/>
<path d="M0 300 l0 -300 300 0 300 0 0 75 0 75 -225 0 -225 0 0 225 0 225 -75
0 -75 0 0 -300z"/>
<path d="M2410 375 l0 -225 -225 0 -225 0 0 -75 0 -75 300 0 300 0 0 300 0
300 -75 0 -75 0 0 -225z"/>
</g>
</svg>
