<svg width="72" height="54" viewBox="0 0 72 54" fill="none" xmlns="http://www.w3.org/2000/svg">
    <path
        d="M57.7105 1.48492L70.0375 13.8119C70.4313 14.2057 70.6526 14.7399 70.6526 15.2968C70.6526 15.8538 70.4313 16.3879 70.0375 16.7818L57.7105 29.1088C57.3167 29.5026 56.7825 29.7238 56.2256 29.7238C55.6686 29.7238 55.1345 29.5026 54.7407 29.1088L42.4137 16.7818C42.0198 16.3879 41.7986 15.8538 41.7986 15.2968C41.7986 14.7399 42.0198 14.2057 42.4137 13.8119L54.7407 1.48492C55.1345 1.0911 55.6686 0.869848 56.2256 0.869848C56.7825 0.869848 57.3167 1.0911 57.7105 1.48492V1.48492Z"
        fill="#1C9BEF" />
    <path
        d="M17.6412 1.48492L29.9682 13.8119C30.362 14.2057 30.5832 14.7399 30.5832 15.2968C30.5832 15.8538 30.362 16.3879 29.9682 16.7818L17.6412 29.1088C17.2473 29.5026 16.7132 29.7238 16.1562 29.7238C15.5993 29.7238 15.0652 29.5026 14.6713 29.1088L2.34433 16.7818C1.95051 16.3879 1.72926 15.8538 1.72926 15.2968C1.72926 14.7399 1.95051 14.2057 2.34433 13.8119L14.6713 1.48492C15.0652 1.0911 15.5993 0.869848 16.1562 0.869848C16.7132 0.869848 17.2473 1.0911 17.6412 1.48492V1.48492Z"
        fill="#E234B1" />
    <path
        d="M37.8062 23.942L50.1332 36.2689C50.527 36.6628 50.7483 37.1969 50.7483 37.7539C50.7483 38.3108 50.527 38.845 50.1332 39.2388L37.8062 51.5658C37.4124 51.9596 36.8782 52.1809 36.3213 52.1809C35.7643 52.1809 35.2302 51.9596 34.8364 51.5658L22.5094 39.2388C22.1155 38.845 21.8943 38.3108 21.8943 37.7539C21.8943 37.1969 22.1155 36.6628 22.5094 36.2689L34.8364 23.942C35.2302 23.5481 35.7643 23.3269 36.3213 23.3269C36.8782 23.3269 37.4124 23.5481 37.8062 23.942V23.942Z"
        fill="#EF9D3A" />
</svg>